<svg width="25.040039" height="24.936584" viewBox="0 0 25.04 24.9366" fill="none" xmlns="http://www.w3.org/2000/svg" xmlns:xlink="http://www.w3.org/1999/xlink">
	<desc>
			Created with Pixso.
	</desc>
	<defs/>
	<path id="Vector" d="M7.84 23.93C7.2 23.93 6.69 23.42 6.69 22.78C6.69 22.15 7.2 21.63 7.84 21.63C8.47 21.63 8.99 22.15 8.99 22.78C8.99 23.42 8.47 23.93 7.84 23.93Z" stroke="#FFFFFF" stroke-opacity="1.000000" stroke-width="2.000000" stroke-linejoin="round"/>
	<path id="Vector" d="M20.48 23.93C19.85 23.93 19.33 23.42 19.33 22.78C19.33 22.15 19.85 21.63 20.48 21.63C21.12 21.63 21.63 22.15 21.63 22.78C21.63 23.42 21.12 23.93 20.48 23.93Z" stroke="#FFFFFF" stroke-opacity="1.000000" stroke-width="2.000000" stroke-linejoin="round"/>
	<path id="Vector" d="M1 1L3.29 1L6.35 15.27C6.46 15.8 6.76 16.26 7.18 16.6C7.6 16.93 8.12 17.1 8.65 17.09L19.9 17.09C20.42 17.09 20.93 16.91 21.33 16.58C21.74 16.25 22.03 15.8 22.14 15.29L24.04 6.74L4.52 6.74" stroke="#FFFFFF" stroke-opacity="1.000000" stroke-width="2.000000" stroke-linejoin="round" stroke-linecap="round"/>
</svg>
