<svg width="24.000000" height="24.000000" viewBox="0 0 24 24" fill="none" xmlns="http://www.w3.org/2000/svg" xmlns:xlink="http://www.w3.org/1999/xlink">
	<desc>
			Created with Pixso.
	</desc>
	<defs/>
	<path id="Vector" d="M16.36 8.72C16.36 9.88 15.9 10.99 15.08 11.81C14.26 12.63 13.15 13.09 12 13.09C10.84 13.09 9.73 12.63 8.91 11.81C8.09 10.99 7.63 9.88 7.63 8.72C7.63 7.56 8.09 6.46 8.91 5.64C9.73 4.82 10.84 4.36 12 4.36C13.15 4.36 14.26 4.82 15.08 5.64C15.9 6.46 16.36 7.56 16.36 8.72ZM14.18 8.72C14.18 9.3 13.95 9.86 13.54 10.27C13.13 10.67 12.57 10.9 12 10.9C11.42 10.9 10.86 10.67 10.45 10.27C10.04 9.86 9.81 9.3 9.81 8.72C9.81 8.14 10.04 7.59 10.45 7.18C10.86 6.77 11.42 6.54 12 6.54C12.57 6.54 13.13 6.77 13.54 7.18C13.95 7.59 14.18 8.14 14.18 8.72Z" fill="#FFFFFF" fill-opacity="1.000000" fill-rule="evenodd"/>
	<path id="Vector" d="M12 0C5.37 0 0 5.37 0 12C0 18.62 5.37 24 12 24C18.62 24 24 18.62 24 12C24 5.37 18.62 0 12 0ZM2.18 12C2.18 14.28 2.95 16.37 4.26 18.04C5.17 16.84 6.36 15.86 7.71 15.19C9.06 14.52 10.55 14.18 12.07 14.18C13.56 14.18 15.03 14.51 16.37 15.17C17.71 15.82 18.89 16.77 19.8 17.95C20.75 16.71 21.38 15.26 21.66 13.73C21.93 12.19 21.84 10.62 21.38 9.12C20.93 7.63 20.12 6.27 19.04 5.16C17.95 4.04 16.61 3.19 15.14 2.69C13.66 2.2 12.09 2.06 10.54 2.29C9 2.52 7.54 3.11 6.27 4.02C5 4.93 3.97 6.13 3.26 7.51C2.55 8.9 2.18 10.44 2.18 12ZM12 21.81C9.74 21.82 7.56 21.04 5.81 19.62C6.51 18.61 7.45 17.79 8.54 17.22C9.63 16.65 10.84 16.36 12.07 16.36C13.28 16.36 14.48 16.65 15.55 17.2C16.63 17.75 17.57 18.56 18.27 19.54C16.51 21.01 14.29 21.82 12 21.81Z" fill="#FFFFFF" fill-opacity="1.000000" fill-rule="evenodd"/>
</svg>
