<svg width="18.000000" height="23.142853" viewBox="0 0 18 23.1429" fill="none" xmlns="http://www.w3.org/2000/svg" xmlns:xlink="http://www.w3.org/1999/xlink">
	<desc>
			Created with Pixso.
	</desc>
	<defs/>
	<path id="Vector" d="M0 23.14L0 2.57C0 1.86 0.25 1.25 0.75 0.75C1.26 0.25 1.86 0 2.57 0L15.42 0C16.13 0 16.74 0.25 17.24 0.75C17.74 1.26 18 1.86 18 2.57L18 23.14L9 19.28L0 23.14Z" fill="#FFFFFF" fill-opacity="0" fill-rule="nonzero"/>
	<path id="Vector" d="M9 19.28L16 22.28L18 23.14L18 2.57C18 1.86 17.74 1.26 17.24 0.75Q16.85 0.36 16.38 0.17Q15.94 0 15.42 0L2.57 0Q2.05 0 1.61 0.17Q1.14 0.36 0.75 0.75Q0.36 1.14 0.17 1.6Q0 2.05 0 2.57L0 23.14L2 22.28L9 19.28ZM2 20.1L9 17.1L16 20.1L16 2.56Q16 2.43 15.96 2.35Q15.92 2.26 15.83 2.17Q15.73 2.07 15.64 2.03Q15.55 2 15.42 2L2.57 2Q2.44 2 2.35 2.03Q2.26 2.07 2.16 2.17Q2.07 2.26 2.03 2.35Q2 2.44 2 2.57L2 20.1Z" fill="#FFFFFF" fill-opacity="1.000000" fill-rule="evenodd"/>
</svg>
