<svg width="16.000000" height="18.000000" viewBox="0 0 16 18" fill="none" xmlns="http://www.w3.org/2000/svg" xmlns:xlink="http://www.w3.org/1999/xlink">
	<desc>
			Created with Pixso.
	</desc>
	<defs/>
	<path id="Vector" d="M5 0L5 1L0 1L0 3L1 3L1 16C1 16.53 1.21 17.03 1.58 17.41C1.96 17.78 2.46 18 3 18L13 18C13.53 18 14.03 17.78 14.41 17.41C14.78 17.03 15 16.53 15 16L15 3L16 3L16 1L11 1L11 0L5 0ZM3 3L13 3L13 16L3 16L3 3ZM5 5L5 14L7 14L7 5L5 5ZM9 5L9 14L11 14L11 5L9 5Z" fill="#000000" fill-opacity="1.000000" fill-rule="nonzero"/>
</svg>
